<svg width="24" height="18" viewBox="0 0 24 18" fill="none" xmlns="http://www.w3.org/2000/svg">
<path fill-rule="evenodd" clip-rule="evenodd" d="M18.3318 0.21657C20.6995 0.91561 22.2956 3.47476 23.3561 8.26953C23.8927 10.6937 24.0907 12.5643 23.9622 13.9884C23.7931 15.8455 23.0531 17.01 21.762 17.4506C20.9425 17.7321 20.0984 17.6231 19.2539 17.132C18.6189 16.7625 17.9823 16.1755 17.3088 15.3364C16.2372 14.0019 14.9966 13.5953 11.999 13.5953C8.64278 13.5953 7.55821 14.1814 6.63166 15.3364C5.81161 16.357 4.61155 17.6036 3.11496 17.6036C2.79744 17.6025 2.48236 17.5481 2.18291 17.4426C-0.00172038 16.6865 -0.571253 13.4278 0.585813 8.26653C1.66188 3.47026 3.25697 0.91211 5.6121 0.21607C6.1284 0.0708977 6.66238 -0.00180212 7.19869 5.75319e-05C7.88223 5.75319e-05 8.47877 0.167067 9.1108 0.344577C9.87335 0.55809 10.7384 0.800104 11.999 0.800104C13.2595 0.800104 14.1241 0.55759 14.8851 0.344077C15.5167 0.167067 16.1137 5.75319e-05 16.7992 5.75319e-05C17.3179 -0.00234622 17.8341 0.0705857 18.3318 0.21657ZM7.99885 8.00052H9.59895C10.0408 8.00052 10.399 7.64233 10.399 7.20047C10.399 6.75862 10.0408 6.40043 9.59895 6.40043H7.99885V4.80033C7.99885 4.35848 7.64066 4.00029 7.19881 4.00029C6.75695 4.00029 6.39876 4.35848 6.39876 4.80033V6.40043H4.79867C4.35682 6.40043 3.99862 6.75862 3.99862 7.20047C3.99862 7.64233 4.35682 8.00052 4.79867 8.00052H6.39876V9.60061C6.39876 10.0425 6.75695 10.4007 7.19881 10.4007C7.64066 10.4007 7.99885 10.0425 7.99885 9.60061V8.00052ZM13.7992 8.20053C13.2469 8.20053 12.7991 7.75279 12.7991 7.20047C12.7991 6.64815 13.2469 6.20041 13.7992 6.20041C14.3515 6.20041 14.7992 6.64815 14.7992 7.20047C14.7992 7.75279 14.3515 8.20053 13.7992 8.20053ZM15.0751 9.78275C15.2297 10.1568 15.5945 10.4007 15.9992 10.4007C16.5506 10.4007 16.9979 9.95446 16.9993 9.40312C17.0003 8.99841 16.7573 8.63299 16.3837 8.47741C16.01 8.32183 15.5795 8.40678 15.293 8.69259C15.0064 8.97841 14.9204 9.40875 15.0751 9.78275ZM15.9992 6.0004C15.4469 6.0004 14.9991 5.55266 14.9991 5.00035C14.9991 4.44803 15.4469 4.00029 15.9992 4.00029C16.5515 4.00029 16.9993 4.44803 16.9993 5.00035C16.9993 5.55266 16.5515 6.0004 15.9992 6.0004ZM17.1992 7.20047C17.1992 7.75279 17.6469 8.20053 18.1992 8.20053C18.7515 8.20053 19.1993 7.75279 19.1993 7.20047C19.1993 6.64815 18.7515 6.20041 18.1992 6.20041C17.6469 6.20041 17.1992 6.64815 17.1992 7.20047Z" fill="#F6F5F7"/>
</svg>
